<?xml version="1.0" encoding="iso-8859-1"?>
<!-- Generator: Adobe Illustrator 19.0.0, SVG Export Plug-In . SVG Version: 6.00 Build 0)  -->
<svg version="1.1" id="Capa_1" xmlns="http://www.w3.org/2000/svg" xmlns:xlink="http://www.w3.org/1999/xlink" x="0px" y="0px"
	 viewBox="0 0 512 512" style="enable-background:new 0 0 512 512;" xml:space="preserve">
<g>
	<g>
		<path d="M505.764,254.741c10.24-16.642,7.67-37.841-6.25-51.553l-19.96-19.663c-4.528-4.461-6.868-10.657-6.416-16.998l2-28.083
			c1.395-19.581-10.759-37.214-29.553-42.88l-26.431-7.968c-6.127-1.848-11.1-6.274-13.644-12.145l-11.063-25.522
			c-7.733-17.844-27.204-28.075-46.283-24.331l-26.817,5.263c-6.311,1.239-12.803-0.368-17.808-4.409L282.191,9.216
			c-15.176-12.253-37.206-12.253-52.382,0l-21.348,17.236c-5.006,4.041-11.498,5.646-17.808,4.409l-26.82-5.264
			c-19.078-3.745-38.545,6.486-46.282,24.327l-11.069,25.529c-2.544,5.87-7.518,10.296-13.643,12.143l-26.426,7.967
			c-18.794,5.666-30.947,23.298-29.552,42.879l2,28.085c0.452,6.341-1.888,12.536-6.416,16.998l-19.961,19.663
			C-1.434,216.9-4.004,238.099,6.236,254.74l14.759,23.984c3.326,5.406,4.119,11.972,2.177,18.013l-8.635,26.854
			c-5.991,18.632,1.578,38.622,18.407,48.614l23.921,14.202c5.482,3.255,9.241,8.726,10.312,15.011l4.708,27.617
			c3.31,19.415,19.361,33.657,39.031,34.635l27.4,1.362c6.409,0.318,12.313,3.43,16.196,8.54l16.706,21.98
			c8.054,10.597,20.579,16.418,33.336,16.418c5.923,0,11.899-1.255,17.498-3.867l24.767-11.566c5.835-2.724,12.528-2.724,18.361,0
			l24.766,11.566c17.662,8.246,39.042,2.969,50.837-12.552l16.7-21.975c3.884-5.111,9.788-8.224,16.199-8.542l27.404-1.362
			c19.671-0.978,35.721-15.22,39.031-34.636l4.707-27.616c1.071-6.284,4.83-11.756,10.312-15.01l23.921-14.202
			c16.83-9.992,24.398-29.983,18.407-48.614l-8.635-26.855c-1.943-6.043-1.15-12.608,2.177-18.013L505.764,254.741z
			 M473.974,268.243c-6.391,10.388-7.915,23.003-4.182,34.613l8.635,26.855c3.117,9.696-0.822,20.099-9.579,25.299l-23.921,14.202
			c-10.535,6.255-17.758,16.768-19.816,28.844l-4.707,27.616c-1.723,10.104-10.075,17.517-20.312,18.024l-27.404,1.362
			c-12.319,0.612-23.664,6.595-31.127,16.416l-16.7,21.975c-6.138,8.076-17.265,10.822-26.456,6.532l-24.766-11.566
			c-11.211-5.235-24.071-5.235-35.282,0l-24.767,11.566c-9.191,4.29-20.317,1.546-26.455-6.53l-16.706-21.98
			c-7.463-9.819-18.807-15.801-31.124-16.413l-27.4-1.362c-10.236-0.508-18.588-7.92-20.311-18.023l-4.707-27.616
			c-2.059-12.077-9.281-22.59-19.816-28.844l-23.921-14.202c-8.758-5.199-12.698-15.603-9.579-25.299l8.635-26.855
			c3.732-11.61,2.209-24.225-4.183-34.613l-14.759-23.985c-5.329-8.66-3.991-19.692,3.252-26.828l19.961-19.663
			c8.703-8.573,13.196-20.478,12.329-32.663l-2-28.085c-0.726-10.189,5.598-19.365,15.379-22.314l26.426-7.967
			c11.771-3.548,21.327-12.054,26.217-23.332l11.069-25.528c3.469-8,11.469-13.06,19.969-13.06c1.365,0,2.742,0.131,4.115,0.401
			l26.82,5.264c12.13,2.379,24.603-0.709,34.22-8.473l21.346-17.239c7.898-6.377,19.362-6.377,27.26,0l21.348,17.235
			c9.618,7.766,22.092,10.853,34.221,8.473l26.817-5.263c9.932-1.951,20.061,3.375,24.086,12.661L387.163,83.4
			c4.891,11.281,14.447,19.787,26.22,23.336l26.431,7.968c9.781,2.948,16.106,12.125,15.38,22.315l-2,28.084
			c-0.868,12.186,3.625,24.09,12.329,32.664l19.96,19.663c7.244,7.136,8.581,18.167,3.252,26.828L473.974,268.243z"/>
	</g>
</g>
<g>
	<g>
		<path d="M135.997,121.557c-3.884-3.924-10.214-3.956-14.139-0.071l-0.146,0.146c-3.924,3.884-3.956,10.215-0.071,14.139
			c1.956,1.975,4.53,2.963,7.106,2.963c2.542,0,5.084-0.964,7.034-2.892l0.146-0.146
			C139.85,131.812,139.882,125.481,135.997,121.557z"/>
	</g>
</g>
<g>
	<g>
		<path d="M442.747,221.09c-7.027-37.775-25.154-72.154-52.422-99.422c-61.501-61.5-156.606-73.459-231.282-29.081
			c-4.747,2.821-6.308,8.956-3.487,13.703c2.822,4.747,8.956,6.307,13.703,3.487c66.807-39.704,151.898-28.998,206.927,26.031
			c49.202,49.203,63.478,122.403,36.369,186.483c-2.152,5.085,0.227,10.952,5.312,13.103c1.272,0.538,2.592,0.792,3.891,0.792
			c3.896,0,7.599-2.292,9.213-6.105C445.535,295.656,449.606,257.967,442.747,221.09z"/>
	</g>
</g>
<g>
	<g>
		<path d="M390.359,376.211c-3.884-3.923-10.215-3.956-14.139-0.071l-0.146,0.146c-3.924,3.884-3.956,10.215-0.071,14.139
			c1.956,1.975,4.53,2.963,7.106,2.963c2.542,0,5.085-0.964,7.034-2.892l0.146-0.146
			C394.212,386.466,394.244,380.135,390.359,376.211z"/>
	</g>
</g>
<g>
	<g>
		<path d="M356.445,405.693c-2.821-4.747-8.956-6.307-13.703-3.487c-26.969,16.028-56.91,23.84-86.657,23.839
			c-43.943-0.002-87.456-17.056-120.27-49.87c-49.202-49.203-63.478-122.403-36.369-186.483c2.152-5.085-0.227-10.952-5.312-13.103
			c-5.084-2.15-10.952,0.227-13.103,5.313c-14.564,34.425-18.635,72.114-11.776,108.992c7.027,37.775,25.154,72.154,52.422,99.422
			c36.674,36.673,85.296,55.73,134.411,55.73c33.249,0,66.726-8.734,96.87-26.649C357.704,416.575,359.265,410.44,356.445,405.693z"
			/>
	</g>
</g>
<g>
	<g>
		<path d="M297.319,174.15c-4.808-2.715-10.907-1.018-13.621,3.791l-92.689,164.187c-2.714,4.809-1.018,10.907,3.791,13.621
			c1.554,0.877,3.24,1.294,4.906,1.294c3.489,0,6.879-1.83,8.715-5.085l92.689-164.187
			C303.825,182.962,302.128,176.864,297.319,174.15z"/>
	</g>
</g>
<g>
	<g>
		<path d="M316.233,280.431c-23.154,0-41.992,18.837-41.992,41.992c0,23.154,18.837,41.992,41.992,41.992
			c23.154,0,41.992-18.837,41.992-41.992C358.225,299.268,339.388,280.431,316.233,280.431z M316.233,344.418
			c-12.129,0-21.996-9.867-21.996-21.996c0-12.129,9.867-21.996,21.996-21.996c12.129,0,21.996,9.867,21.996,21.996
			C338.229,334.551,328.362,344.418,316.233,344.418z"/>
	</g>
</g>
<g>
	<g>
		<path d="M195.766,147.567c-23.154,0-41.992,18.837-41.992,41.992s18.837,41.992,41.992,41.992
			c23.154,0,41.992-18.837,41.992-41.992S218.921,147.567,195.766,147.567z M195.766,211.554c-12.129,0-21.996-9.867-21.996-21.996
			s9.867-21.996,21.996-21.996c12.129,0,21.996,9.867,21.996,21.996S207.895,211.554,195.766,211.554z"/>
	</g>
</g>
<g>
</g>
<g>
</g>
<g>
</g>
<g>
</g>
<g>
</g>
<g>
</g>
<g>
</g>
<g>
</g>
<g>
</g>
<g>
</g>
<g>
</g>
<g>
</g>
<g>
</g>
<g>
</g>
<g>
</g>
</svg>
